<?xml version="1.0" standalone="no"?>
<!DOCTYPE svg PUBLIC "-//W3C//DTD SVG 20010904//EN"
 "http://www.w3.org/TR/2001/REC-SVG-20010904/DTD/svg10.dtd">
<svg version="1.0" xmlns="http://www.w3.org/2000/svg"
 width="700.000000pt" height="700.000000pt" viewBox="0 0 700.000000 700.000000"
 preserveAspectRatio="xMidYMid meet">
<metadata>
Created by potrace 1.14, written by Peter Selinger 2001-2017
</metadata>
<g transform="translate(0.000000,700.000000) scale(0.100000,-0.100000)"
fill="#000000" stroke="none">
<path d="M2024 5729 c-48 -24 -54 -53 -54 -269 0 -209 3 -228 44 -262 26 -22
94 -23 124 -2 46 32 50 55 48 277 l-1 209 -33 29 c-34 31 -86 38 -128 18z"/>
<path d="M1142 5360 c-57 -35 -77 -92 -51 -143 21 -39 287 -296 314 -303 83
-21 163 66 130 142 -9 21 -224 245 -290 302 -2 2 -19 7 -39 12 -26 6 -42 3
-64 -10z"/>
<path d="M2935 5367 c-35 -12 -300 -273 -314 -310 -20 -52 7 -116 58 -137 58
-24 88 -8 202 104 172 169 197 201 195 238 -6 79 -71 128 -141 105z"/>
<path d="M3810 4994 c-23 -4 -122 -22 -160 -29 -41 -8 -178 -59 -233 -86 -150
-76 -299 -194 -392 -314 -16 -21 -40 -51 -53 -66 l-23 -28 -57 25 c-62 27
-201 64 -244 64 -19 0 -29 7 -34 22 -17 54 -94 165 -149 215 -164 150 -398
191 -604 108 -178 -73 -309 -233 -345 -421 -24 -129 -6 -255 55 -376 31 -62
132 -176 183 -207 l31 -20 -5 -75 c-3 -41 -2 -88 1 -105 6 -28 4 -30 -40 -42
-121 -33 -275 -124 -366 -216 -368 -372 -322 -969 98 -1282 75 -56 201 -117
282 -137 17 -4 32 -8 35 -9 42 -12 189 -19 422 -19 157 -1 289 -3 291 -6 5 -5
1 -35 -19 -155 -15 -88 -10 -124 21 -155 36 -35 76 -44 119 -26 43 18 60 48
74 131 23 143 26 160 28 168 1 4 2 15 3 25 1 16 20 17 275 17 151 1 273 -2
271 -5 -2 -3 -6 -30 -10 -60 -4 -30 -8 -57 -10 -60 -2 -3 -6 -35 -10 -71 -8
-80 9 -123 57 -144 54 -22 128 3 145 50 10 28 18 73 28 161 5 42 14 90 21 114
3 13 41 15 274 15 300 1 278 7 260 -70 -5 -22 -12 -67 -15 -100 -4 -33 -9 -68
-10 -77 -6 -29 38 -82 78 -95 73 -24 131 22 143 114 3 26 13 89 22 138 l17 90
435 1 c464 1 514 4 618 36 281 86 492 322 547 612 17 88 12 252 -10 336 -49
190 -173 365 -336 473 -105 70 -281 127 -390 127 l-41 0 9 53 c4 28 8 122 8
207 -1 136 -4 168 -28 262 -88 342 -309 619 -614 772 -67 33 -201 83 -248 92
-25 5 -62 13 -95 20 -30 7 -274 13 -310 8z"/>
<path d="M783 4474 c-58 -20 -84 -76 -63 -136 22 -67 41 -72 257 -73 110 0
207 4 225 10 84 28 97 142 21 192 -22 15 -54 17 -215 18 -123 0 -202 -4 -225
-11z"/>
<path d="M1378 3822 c-51 -34 -287 -280 -294 -307 -12 -47 11 -99 53 -122 47
-25 92 -17 135 23 84 81 252 254 261 269 16 30 15 58 -6 97 -30 56 -97 74
-149 40z"/>
</g>
</svg>
